<svg xmlns="http://www.w3.org/2000/svg" version="1.1" xmlns:xlink="http://www.w3.org/1999/xlink" xmlns:svgjs="http://svgjs.dev/svgjs" width="128" height="128" viewBox="0 0 128 128"><g transform="matrix(0.8046875,0,0,0.8046875,12.333870967741937,12.333870967741937)"><svg viewBox="0 0 155 155" data-background-color="#010536" preserveAspectRatio="xMidYMid meet" height="128" width="128" xmlns="http://www.w3.org/2000/svg" xmlns:xlink="http://www.w3.org/1999/xlink"><g id="tight-bounds" transform="matrix(1,0,0,1,0.25,0.25)"><svg viewBox="0 0 154.5 154.5" height="154.5" width="154.5"><g><svg></svg></g><g><svg viewBox="0 0 154.5 154.5" height="154.5" width="154.5"><g transform="matrix(1,0,0,1,39.0576,50.79100457746479)"><svg viewBox="0 0 76.3848 52.91799084507042" height="52.91799084507042" width="76.3848"><g><svg viewBox="0 0 76.3848 52.91799084507042" height="52.91799084507042" width="76.3848"><g><svg viewBox="0 0 76.3848 52.91799084507042" height="52.91799084507042" width="76.3848"><g id="textblocktransform"><svg viewBox="0 0 76.3848 52.91799084507042" height="52.91799084507042" width="76.3848" id="textblock"><g><svg viewBox="0 0 76.3848 52.91799084507042" height="52.91799084507042" width="76.3848"><g transform="matrix(1,0,0,1,0,0)"><svg width="76.3848" viewBox="1 -39.3 56.8 39.35" height="52.91799084507042" data-palette-color="#fbfbf8"><path d="M57.8-3.95L55.8 0.05 36.6 0.05 36.6-3.5 41.3-7.2 41.3-28.9 29.45 0.05 24.2 0.05 11.95-29.2 11.95-6 17.7-3.95 15.7 0.05 2 0.05 2-3.5 6.7-7.2 6.7-33.15 1-35.3 3-39.3 19-39.3 29.75-13.6 40.3-39.3 56.8-39.3 56.8-35.75 52.05-32.05 52.05-5.35 57.8-3.95Z" opacity="1" transform="matrix(1,0,0,1,0,0)" fill="#000000" class="undefined-text-0" data-fill-palette-color="primary" id="text-0"></path></svg></g></svg></g></svg></g></svg></g></svg></g></svg></g><g mask="url(#8154e518-d08e-495d-a2fc-83dc8f936db9)"><g transform="matrix(1.5249947349114519, 0, 0, 1.5249947349114519, 1, 15.924624227638333)"><svg xmlns="http://www.w3.org/2000/svg" xmlns:xlink="http://www.w3.org/1999/xlink" version="1.1" x="0" y="0" viewBox="0 9.786 100.00034525290006 80.42699999999999" enable-background="new 0 0 100 100" xml:space="preserve" width="100.00034525290006" height="80.42699999999999" class="icon-none" data-fill-palette-color="accent" id="none"><path d="M49.942 52.994c13.552-0.488 27.103-0.977 40.653-1.465-2.527-4.177-3.159-7.831-7.989-8.461-7.229-0.94-14.458-1.883-21.688-2.826-14.023-1.827-28.05-3.654-42.075-5.48C20.101 36.792 39.724 53.361 49.942 52.994z" fill="#000000" data-fill-palette-color="accent"></path><path d="M0 9.786c4.391 7.257 26.615 23.072 32.953 23.886 17.33 2.231 34.657 4.46 51.986 6.688-3.393-5.607-4.18-9.35-10.312-10.959-8.904-2.341-17.812-4.683-26.717-7.023C31.94 18.182 15.97 13.984 0 9.786z" fill="#000000" data-fill-palette-color="accent"></path><path d="M63.108 66.207c10.413-2.219 20.826-4.439 31.241-6.66-2.028-3.346-2.034-5.359-5.827-5.189-6.158 0.273-12.314 0.549-18.471 0.822-11.343 0.506-22.686 1.014-34.028 1.518C37.298 58.064 54.94 67.947 63.108 66.207z" fill="#000000" data-fill-palette-color="accent"></path><path d="M87.682 90.213c5.725-3.719 7.262-7.721 10.519-13.807 3.651-6.824 1.257-7.844-2.821-14.596-0.417-0.688-5.842 0.232-6.453 0.904-0.745 0.818-0.248 5.455-0.294 6.496C88.315 76.211 87.998 83.213 87.682 90.213z" fill="#000000" data-fill-palette-color="accent"></path><path d="M86.35 63.447c-3.795 0.809-8.604 0.191-9.572 4.229-1.373 5.736-2.746 11.475-4.12 17.211C81.904 82.678 86.028 71.582 86.35 63.447z" fill="#000000" data-fill-palette-color="accent"></path><path d="M74.666 66.121c-9.148 1.953-8.956 4.611-12.879 13.18C68.007 78.711 73.811 71.941 74.666 66.121z" fill="#000000" data-fill-palette-color="accent"></path></svg></g></g></svg></g><defs><mask id="8154e518-d08e-495d-a2fc-83dc8f936db9"><rect width="250" height="250" fill="white"></rect><rect width="84.02328" height="77.90332605855211" fill="black" x="82.98836" y="86.04833697072394" id="transform-me" transform="matrix(1,0,0,1,-47.75,-47.75)"></rect></mask></defs></svg><rect width="154.5" height="154.5" fill="none" stroke="none" visibility="hidden"></rect></g></svg></g></svg>